<svg xmlns="http://www.w3.org/2000/svg" xmlns:xlink="http://www.w3.org/1999/xlink" width="300" height="300" viewBox="0 0 300 300" fill="none"><g opacity="1"  transform="translate(0 0)  rotate(0)"><mask id="bg-mask-0" fill="white"><use xlink:href="#path_0"></use></mask><g mask="url(#bg-mask-0)" ><g opacity="1"  transform="translate(55.580352783203125 -5.9996795654296875)  rotate(0)"><g opacity="1"  transform="translate(0 -0.000030517578125)  rotate(0)"><path id="交集" fill-rule="evenodd" style="fill:#FB7185" opacity="0.4" d="M41.6882,158.246c-16.3105,60.872 -46.44003,109.024 -75.9958,126.706c-16.7553,-30.091 -18.7719,-86.857 -2.4613,-147.729c16.3124,-60.8784 46.44244,-109.033 75.9983,-126.7149c16.7552,30.0909 18.7712,86.859 2.4588,147.7379z"></path></g><g opacity="1"  transform="translate(95.3896484375 28.919677734375)  rotate(0)"><path id="交集" fill-rule="evenodd" style="fill:#FBBF24" opacity="0.4" d="M-14.9492,162.961c-36.1463,51.622 -80.9279,86.566 -114.7488,93.072c-5.453,-34.006 12.067,-88.039 48.2133,-139.661c36.1505,-51.6281 80.93328,-86.5735 114.7543,-93.0804c5.453,34.0069 -12.0683,88.0414 -48.2188,139.6694z"></path></g><g opacity="1"  transform="translate(175.13961791992188 88.71968078613281)  rotate(0)"><path id="交集" fill-rule="evenodd" style="fill:#2DD4BF" opacity="0.4" d="M-69.7835,148.02c-51.6225,36.146 -105.6545,53.667 -139.6615,48.213c6.507,-33.82 41.451,-78.602 93.073,-114.7484c51.6281,-36.1504 105.6621,-53.6717 139.669,-48.2187c-6.5069,33.821 -41.4523,78.6041 -93.0805,114.7541z"></path></g><g opacity="1"  transform="translate(229.61965942382812 172.18968200683594)  rotate(0)"><path id="交集" fill-rule="evenodd" style="fill:#38BDF8" opacity="0.4" d="M-116.201,115.226c-60.872,16.311 -117.638,14.294 -147.728,-2.461c17.681,-29.556 65.834,-59.6856 126.706,-75.9961c60.8784,-16.3124 117.6465,-14.2964 147.7374,2.4588c-17.68194,29.5559 -65.8365,59.6859 -126.7154,75.9983z"></path></g></g></g></g><defs><rect id="path_0" x="0" y="0" width="300" height="300" /></defs></svg>
