<svg xmlns="http://www.w3.org/2000/svg" xmlns:xlink="http://www.w3.org/1999/xlink" width="239" height="92" viewBox="0 0 239 92" fill="none"><g opacity="1"  transform="translate(0 0)  rotate(0)"><path id="flowery" fill-rule="evenodd" style="fill:#FFFFFF" opacity="1" d="M0,38.72v-4.88h3.6v-8.24c0,-7.6 4,-11.76 4,-11.76c4,-4.16 11.12,-4.16 11.12,-4.16v4.88c-9.92,0 -9.92,11.04 -9.92,11.04v8.24h10.72v4.88h-10.72v43.6h-5.2v-43.6zM27.12,67.12v-57.44h5.2v57.44zM49.82,42.4c-1.9,1.92 -1.9,7.44 -1.9,7.44c0,5.52 3.8,9.36 3.8,9.36c3.8,3.84 9.4,3.84 9.4,3.84c5.6,0 9.4,-3.84 9.4,-3.84c3.8,-3.84 3.8,-9.36 3.8,-9.36c0,-5.52 -3.8,-9.36 -3.8,-9.36c-3.8,-3.84 -9.4,-3.84 -9.4,-3.84c-5.6,0 -9.4,3.84 -9.4,3.84zM74.28,37l2.62,2.62c2.62,2.62 2.62,10.22 2.62,10.22c0,7.6 -5.24,12.84 -5.24,12.84c-5.24,5.24 -13.16,5.24 -13.16,5.24c-7.92,0 -13.16,-5.24 -13.16,-5.24c-5.24,-5.24 -5.24,-12.84 -5.24,-12.84c0,-7.6 5.24,-12.84 5.24,-12.84c5.24,-5.24 13.16,-5.24 13.16,-5.24c7.92,0 13.16,5.24 13.16,5.24zM99.6,68.32l-15.68,-35.76h5.84l9.92,22.8l10.24,-24l10.32,24l9.84,-22.8h5.68l-15.52,35.76l-10.4,-23.6zM176.8,47.76l-30.96,5.84c1.2,4.16 4.64,6.8 4.64,6.8c3.44,2.64 8.16,2.64 8.16,2.64c2.48,0 4.6,-0.64 4.6,-0.64c2.12,-0.64 3.36,-1.6 3.36,-1.6c1.24,-0.96 2.16,-1.92 2.16,-1.92c0.92,-0.96 1.32,-1.6 1.32,-1.6l0.32,-0.64l4.24,2.88c-0.16,0.32 -0.52,0.88 -0.52,0.88c-0.36,0.56 -1.76,2.04 -1.76,2.04c-1.4,1.48 -3.08,2.56 -3.08,2.56c-1.68,1.08 -4.56,2 -4.56,2c-2.88,0.92 -6.16,0.92 -6.16,0.92c-7.76,0 -13.08,-5.08 -13.08,-5.08c-5.32,-5.08 -5.32,-13 -5.32,-13c0,-7.6 5.24,-12.84 5.24,-12.84c5.24,-5.24 13.16,-5.24 13.16,-5.24c7.36,0 12.44,4.56 12.44,4.56c5.08,4.56 5.8,11.44 5.8,11.44zM149.32,40.32c-3.8,3.68 -3.96,8.96 -3.96,8.96l25.28,-4.8c-1.6,-3.6 -4.8,-5.72 -4.8,-5.72c-3.2,-2.12 -7.28,-2.12 -7.28,-2.12c-5.44,0 -9.24,3.68 -9.24,3.68zM204.32,31.76v5.2h-1.68c-2.72,0 -4.88,0.96 -4.88,0.96c-2.16,0.96 -3.28,2.28 -3.28,2.28c-1.12,1.32 -1.8,2.68 -1.8,2.68c-0.68,1.36 -0.84,2.32 -0.84,2.32l-0.24,0.96v20.96h-5.2v-34.56h5.2v4c3.84,-4.8 11.04,-4.8 11.04,-4.8zM238.64,32.56l-20.72,49.76h-5.68l7.28,-17.52l-13.6,-32.24h5.76l10.64,25.6l10.64,-25.6z"></path></g></svg>
